# xmcd CD database file
#
# Track frame offsets:
#	187
#	15640
#	28645
#	43310
#	59057
#	72372
#	84497
#	98292
#
# Disc length: 1538 seconds
#
# Revision: 0
# Processed by: cddbd v1.5.1PL0 Copyright (c) Steve Scherf et al.
# Submitted via: CDex 1.50
#
DISCID=63060008
DTITLE=Arnold Ross - Piano and Rhythm
DYEAR=1952
DGENRE=Jazz
TTITLE0=Jeepers Creepers
TTITLE1=Lalou
TTITLE2=Can I dream
TTITLE3=Arbijo
TTITLE4=As time goes by
TTITLE5=Kee Moe
TTITLE6=Easy to remember
TTITLE7=Being in love
EXTD=YEAR: 1952
EXTT0=
EXTT1=
EXTT2=
EXTT3=
EXTT4=
EXTT5=
EXTT6=
EXTT7=
PLAYORDER=
